<svg width="375" height="779" viewBox="0 0 375 779" fill="currentColor" xmlns="http://www.w3.org/2000/svg">
<g filter="url(#filter0_if_547_1284)">
<path d="M212.847 314.329C196.333 314.329 180.189 319.324 166.458 328.683C152.727 338.042 142.025 351.344 135.706 366.907C129.386 382.469 127.732 399.595 130.954 416.116C134.176 432.637 142.128 447.813 153.805 459.725C165.483 471.636 180.361 479.748 196.557 483.034C212.754 486.32 229.543 484.634 244.8 478.187C260.057 471.741 273.097 460.825 282.272 446.818C291.447 432.812 296.344 416.345 296.344 399.5C296.344 376.911 287.547 355.248 271.888 339.275C256.23 323.303 234.992 314.329 212.847 314.329ZM-84.4846 399.5C-84.4846 319.062 -53.1587 241.919 2.60181 185.041C58.3623 128.163 133.99 96.2093 212.847 96.2093V10C2.06743 10 -169 184.496 -169 399.5C-169 614.504 2.06743 789 212.847 789V702.791C133.99 702.791 58.3623 670.837 2.60181 613.959C-53.1587 557.081 -84.4846 479.938 -84.4846 399.5ZM212.847 507.521C191.902 507.521 171.428 501.186 154.013 489.316C136.598 477.447 123.024 460.576 115.009 440.838C106.994 421.1 104.897 399.38 108.983 378.426C113.069 357.472 123.155 338.224 137.965 323.117C152.775 308.01 171.645 297.722 192.187 293.554C212.729 289.386 234.022 291.525 253.373 299.701C272.723 307.877 289.262 321.723 300.899 339.487C312.535 357.251 318.746 378.135 318.746 399.5H403.261C403.261 361.085 392.094 323.532 371.171 291.591C350.248 259.65 320.509 234.755 285.715 220.054C250.922 205.353 212.636 201.507 175.699 209.001C138.762 216.496 104.834 234.995 78.2036 262.158C51.5737 289.322 33.4385 323.93 26.0913 361.607C18.7442 399.285 22.515 438.338 36.927 473.829C51.339 509.32 75.7449 539.655 107.058 560.997C138.372 582.339 175.187 593.731 212.847 593.731V507.521ZM212.847 96.2093V182.419C269.289 182.419 323.42 205.29 363.331 246C403.241 286.711 425.663 341.926 425.663 399.5C425.663 457.074 403.241 512.289 363.331 553C323.42 593.71 269.289 616.581 212.847 616.581V702.791C291.704 702.791 367.332 670.837 423.092 613.959C478.852 557.081 510.178 479.938 510.178 399.5C510.178 319.062 478.852 241.919 423.092 185.041C367.332 128.163 291.704 96.2093 212.847 96.2093Z" fill="#009FDF" fill-opacity="0.2"/>
</g>
<defs>
<filter id="filter0_if_547_1284" x="-229" y="-50" width="799.178" height="899" filterUnits="userSpaceOnUse" color-interpolation-filters="sRGB">
<feFlood flood-opacity="0" result="BackgroundImageFix"/>
<feBlend mode="normal" in="SourceGraphic" in2="BackgroundImageFix" result="shape"/>
<feColorMatrix in="SourceAlpha" type="matrix" values="0 0 0 0 0 0 0 0 0 0 0 0 0 0 0 0 0 0 127 0" result="hardAlpha"/>
<feOffset dy="4"/>
<feGaussianBlur stdDeviation="10"/>
<feComposite in2="hardAlpha" operator="arithmetic" k2="-1" k3="1"/>
<feColorMatrix type="matrix" values="0 0 0 0 0 0 0 0 0 0 0 0 0 0 0 0 0 0 0.25 0"/>
<feBlend mode="normal" in2="shape" result="effect1_innerShadow_547_1284"/>
<feGaussianBlur stdDeviation="30" result="effect2_foregroundBlur_547_1284"/>
</filter>
</defs>
</svg>