<svg width="20" height="16" viewBox="0 0 20 16" fill="none" xmlns="http://www.w3.org/2000/svg">
<path d="M4.27846 12.7048L2.55971 14.4158C2.48649 14.4884 2.42837 14.5748 2.38871 14.67C2.34904 14.7652 2.32862 14.8673 2.32862 14.9705C2.32862 15.0736 2.34904 15.1757 2.38871 15.2709C2.42837 15.3661 2.48649 15.4525 2.55971 15.5251C2.63234 15.5984 2.71875 15.6565 2.81395 15.6962C2.90915 15.7358 3.01127 15.7562 3.1144 15.7562C3.21754 15.7562 3.31965 15.7358 3.41485 15.6962C3.51006 15.6565 3.59646 15.5984 3.66909 15.5251L6.05972 13.1267L8.76284 10.4236L17.7316 1.46267C17.8787 1.31556 17.9614 1.11603 17.9614 0.907981C17.9614 0.699933 17.8787 0.500406 17.7316 0.353294C17.5845 0.206182 17.385 0.123535 17.1769 0.123535C16.9689 0.123535 16.7693 0.206182 16.6222 0.353294L14.6222 2.3611C12.2351 1.16958 9.47333 0.971607 6.94067 1.81046C4.40801 2.64931 2.31047 4.45675 1.10659 6.83766C0.933008 7.17891 0.842529 7.55636 0.842529 7.93922C0.842529 8.32209 0.933008 8.69953 1.10659 9.04078C1.85117 10.5012 2.93973 11.7587 4.27846 12.7048ZM8.18472 7.93922C8.18471 7.68208 8.23549 7.42746 8.33413 7.18998C8.43277 6.95251 8.57734 6.73685 8.75953 6.55539C8.94172 6.37392 9.15796 6.23022 9.39583 6.13252C9.63369 6.03483 9.88851 5.98507 10.1457 5.9861C10.3888 5.98627 10.6298 6.03129 10.8566 6.11891L8.32534 8.65016C8.23772 8.42336 8.1927 8.18235 8.19253 7.93922H8.18472ZM2.4894 7.5486C3.20951 6.13748 4.30568 4.95288 5.6568 4.12566C7.00792 3.29844 8.56141 2.86081 10.1457 2.8611C11.2801 2.86398 12.4029 3.0896 13.4503 3.52517L12.0128 4.97048C11.4552 4.61419 10.8074 4.42447 10.1457 4.4236C9.21389 4.42567 8.32087 4.79672 7.66201 5.45558C7.00315 6.11444 6.63209 7.00746 6.63003 7.93922C6.6309 8.60098 6.82062 9.24874 7.1769 9.80641L5.41128 11.5642C4.17679 10.756 3.17281 9.64163 2.49721 8.32985C2.42865 8.21108 2.39255 8.07636 2.39255 7.93922C2.39255 7.80208 2.42865 7.66736 2.49721 7.5486H2.4894ZM17.9035 4.91579C17.8715 4.88971 17.8376 4.8662 17.8019 4.84548L17.6691 4.75954C17.6245 4.73938 17.5771 4.7262 17.5285 4.72048C17.4793 4.71232 17.4292 4.71232 17.38 4.72048H17.2394C17.1903 4.71232 17.1401 4.71232 17.091 4.72048C17.0418 4.73913 16.9947 4.76268 16.9503 4.79079C16.9148 4.80874 16.8808 4.82965 16.8488 4.85329L8.4894 13.1814C8.4894 13.1814 8.4894 13.2361 8.43472 13.2595C8.39732 13.302 8.36579 13.3493 8.34097 13.4002C8.31834 13.4471 8.30256 13.4971 8.29409 13.5486C8.29409 13.5486 8.29409 13.6111 8.29409 13.6423C8.29333 13.6553 8.29333 13.6684 8.29409 13.6814C8.28607 13.7384 8.28607 13.7963 8.29409 13.8533C8.28965 13.8974 8.28965 13.9419 8.29409 13.9861C8.31169 14.0318 8.33258 14.0762 8.35659 14.1189L8.44253 14.2439C8.44253 14.2439 8.44253 14.2439 8.44253 14.283C8.44253 14.322 8.49722 14.322 8.52065 14.3455L8.65347 14.4314C8.70405 14.4517 8.75634 14.4673 8.80972 14.4783C8.80972 14.4783 8.8644 14.4783 8.90347 14.4783H8.9894C9.37267 14.5333 9.75867 14.5672 10.1457 14.5798C12.0163 14.5786 13.8502 14.0607 15.4452 13.0833C17.0402 12.1059 18.3343 10.7069 19.1847 9.04078C19.3583 8.69953 19.4488 8.32209 19.4488 7.93922C19.4488 7.55636 19.3583 7.17891 19.1847 6.83766C18.8455 6.1625 18.4342 5.52599 17.9582 4.93923L17.9035 4.91579ZM17.7941 8.32985C17.1366 9.62134 16.1613 10.7243 14.9599 11.5347C13.7585 12.3452 12.3706 12.8366 10.9269 12.9627L17.2628 6.63454C17.4673 6.9254 17.6501 7.23091 17.8097 7.5486C17.8759 7.66873 17.9093 7.80417 17.9066 7.94132C17.9039 8.07846 17.8651 8.21246 17.7941 8.32985Z" fill="white"/>
<path d="M4.27846 12.7048L2.55971 14.4158C2.48649 14.4884 2.42837 14.5748 2.38871 14.67C2.34904 14.7652 2.32862 14.8673 2.32862 14.9705C2.32862 15.0736 2.34904 15.1757 2.38871 15.2709C2.42837 15.3661 2.48649 15.4525 2.55971 15.5251C2.63234 15.5984 2.71875 15.6565 2.81395 15.6962C2.90915 15.7358 3.01127 15.7562 3.1144 15.7562C3.21754 15.7562 3.31965 15.7358 3.41485 15.6962C3.51006 15.6565 3.59646 15.5984 3.66909 15.5251L6.05972 13.1267L8.76284 10.4236L17.7316 1.46267C17.8787 1.31556 17.9614 1.11603 17.9614 0.907981C17.9614 0.699933 17.8787 0.500406 17.7316 0.353294C17.5845 0.206182 17.385 0.123535 17.1769 0.123535C16.9689 0.123535 16.7693 0.206182 16.6222 0.353294L14.6222 2.3611C12.2351 1.16958 9.47333 0.971607 6.94067 1.81046C4.40801 2.64931 2.31047 4.45675 1.10659 6.83766C0.933008 7.17891 0.842529 7.55636 0.842529 7.93922C0.842529 8.32209 0.933008 8.69953 1.10659 9.04078C1.85117 10.5012 2.93973 11.7587 4.27846 12.7048ZM8.18472 7.93922C8.18471 7.68208 8.23549 7.42746 8.33413 7.18998C8.43277 6.95251 8.57734 6.73685 8.75953 6.55539C8.94172 6.37392 9.15796 6.23022 9.39583 6.13252C9.63369 6.03483 9.88851 5.98507 10.1457 5.9861C10.3888 5.98627 10.6298 6.03129 10.8566 6.11891L8.32534 8.65016C8.23772 8.42336 8.1927 8.18235 8.19253 7.93922H8.18472ZM2.4894 7.5486C3.20951 6.13748 4.30568 4.95288 5.6568 4.12566C7.00792 3.29844 8.56141 2.86081 10.1457 2.8611C11.2801 2.86398 12.4029 3.0896 13.4503 3.52517L12.0128 4.97048C11.4552 4.61419 10.8074 4.42447 10.1457 4.4236C9.21389 4.42567 8.32087 4.79672 7.66201 5.45558C7.00315 6.11444 6.63209 7.00746 6.63003 7.93922C6.6309 8.60098 6.82062 9.24874 7.1769 9.80641L5.41128 11.5642C4.17679 10.756 3.17281 9.64163 2.49721 8.32985C2.42865 8.21108 2.39255 8.07636 2.39255 7.93922C2.39255 7.80208 2.42865 7.66736 2.49721 7.5486H2.4894ZM17.9035 4.91579C17.8715 4.88971 17.8376 4.8662 17.8019 4.84548L17.6691 4.75954C17.6245 4.73938 17.5771 4.7262 17.5285 4.72048C17.4793 4.71232 17.4292 4.71232 17.38 4.72048H17.2394C17.1903 4.71232 17.1401 4.71232 17.091 4.72048C17.0418 4.73913 16.9947 4.76268 16.9503 4.79079C16.9148 4.80874 16.8808 4.82965 16.8488 4.85329L8.4894 13.1814C8.4894 13.1814 8.4894 13.2361 8.43472 13.2595C8.39732 13.302 8.36579 13.3493 8.34097 13.4002C8.31834 13.4471 8.30256 13.4971 8.29409 13.5486C8.29409 13.5486 8.29409 13.6111 8.29409 13.6423C8.29333 13.6553 8.29333 13.6684 8.29409 13.6814C8.28607 13.7384 8.28607 13.7963 8.29409 13.8533C8.28965 13.8974 8.28965 13.9419 8.29409 13.9861C8.31169 14.0318 8.33258 14.0762 8.35659 14.1189L8.44253 14.2439C8.44253 14.2439 8.44253 14.2439 8.44253 14.283C8.44253 14.322 8.49722 14.322 8.52065 14.3455L8.65347 14.4314C8.70405 14.4517 8.75634 14.4673 8.80972 14.4783C8.80972 14.4783 8.8644 14.4783 8.90347 14.4783H8.9894C9.37267 14.5333 9.75867 14.5672 10.1457 14.5798C12.0163 14.5786 13.8502 14.0607 15.4452 13.0833C17.0402 12.1059 18.3343 10.7069 19.1847 9.04078C19.3583 8.69953 19.4488 8.32209 19.4488 7.93922C19.4488 7.55636 19.3583 7.17891 19.1847 6.83766C18.8455 6.1625 18.4342 5.52599 17.9582 4.93923L17.9035 4.91579ZM17.7941 8.32985C17.1366 9.62134 16.1613 10.7243 14.9599 11.5347C13.7585 12.3452 12.3706 12.8366 10.9269 12.9627L17.2628 6.63454C17.4673 6.9254 17.6501 7.23091 17.8097 7.5486C17.8759 7.66873 17.9093 7.80417 17.9066 7.94132C17.9039 8.07846 17.8651 8.21246 17.7941 8.32985Z" fill="black" fill-opacity="0.2"/>
</svg>
