<svg width="27" height="24" viewBox="0 0 27 24" fill="none" xmlns="http://www.w3.org/2000/svg">
<path d="M12.3832 1.72268L11.4792 0.818709C11.2209 0.56043 10.8335 0.56043 10.5752 0.818709L4.8931 6.50083L2.61164 4.21937C2.35336 3.96109 1.96595 3.96109 1.70767 4.21937L0.803694 5.12334C0.545416 5.38162 0.545416 5.76904 0.803694 6.02732L3.98912 9.21275C4.2474 9.47103 4.59177 9.60016 4.8931 9.60016C5.23747 9.60016 5.53879 9.47103 5.79707 9.21275L12.3832 2.62665C12.5984 2.41142 12.5984 1.98096 12.3832 1.72268ZM25.4693 7.87831H14.2772C13.8037 7.87831 13.4163 7.49089 13.4163 7.01738V5.29553C13.4163 4.82202 13.8037 4.4346 14.2772 4.4346H25.4693C25.9428 4.4346 26.3302 4.82202 26.3302 5.29553V7.01738C26.3302 7.49089 25.9428 7.87831 25.4693 7.87831ZM25.4693 15.6267H11.6944C11.2209 15.6267 10.8335 15.2392 10.8335 14.7657V13.0439C10.8335 12.5704 11.2209 12.1829 11.6944 12.1829H25.4693C25.9428 12.1829 26.3302 12.5704 26.3302 13.0439V14.7657C26.3302 15.2392 25.9428 15.6267 25.4693 15.6267ZM6.52886 15.6267H4.807C4.33349 15.6267 3.94608 15.2392 3.94608 14.7657V13.0439C3.94608 12.5704 4.33349 12.1829 4.807 12.1829H6.52886C7.00237 12.1829 7.38979 12.5704 7.38979 13.0439V14.7657C7.38979 15.2392 7.00237 15.6267 6.52886 15.6267ZM6.52886 23.375H4.807C4.33349 23.375 3.94608 22.9876 3.94608 22.5141V20.7922C3.94608 20.3187 4.33349 19.9313 4.807 19.9313H6.52886C7.00237 19.9313 7.38979 20.3187 7.38979 20.7922V22.5141C7.38979 22.9876 7.00237 23.375 6.52886 23.375ZM25.4693 23.375H11.6944C11.2209 23.375 10.8335 22.9876 10.8335 22.5141V20.7922C10.8335 20.3187 11.2209 19.9313 11.6944 19.9313H25.4693C25.9428 19.9313 26.3302 20.3187 26.3302 20.7922V22.5141C26.3302 22.9876 25.9428 23.375 25.4693 23.375Z" fill="#009FDF"/>
</svg>
