<svg width="130" height="147" viewBox="0 0 130 147" fill="none" xmlns="http://www.w3.org/2000/svg">
<path d="M56.9115 89.0706C60.0725 89.0706 63.1624 88.1332 65.7906 86.3771C68.4189 84.621 70.4673 82.1249 71.677 79.2046C72.8866 76.2843 73.2031 73.0708 72.5864 69.9706C71.9698 66.8704 70.4476 64.0227 68.2125 61.7876C65.9774 59.5524 63.1297 58.0303 60.0295 57.4136C56.9293 56.797 53.7158 57.1135 50.7955 58.3231C47.8751 59.5327 45.3791 61.5812 43.623 64.2094C41.8668 66.8376 40.9295 69.9276 40.9295 73.0885C40.9295 77.3272 42.6133 81.3923 45.6105 84.3895C48.6077 87.3867 52.6728 89.0706 56.9115 89.0706ZM113.823 73.0885C113.823 88.1824 107.827 102.658 97.1541 113.331C86.4811 124.004 72.0054 130 56.9115 130V146.177C97.2564 146.177 130 113.433 130 73.0885C130 32.7437 97.2564 8.7219e-05 56.9115 8.7219e-05V16.177C72.0054 16.177 86.4811 22.173 97.1541 32.846C107.827 43.519 113.823 57.9947 113.823 73.0885ZM56.9115 52.8187C60.9205 52.8187 64.8395 54.0075 68.1729 56.2348C71.5062 58.462 74.1043 61.6278 75.6384 65.3316C77.1726 69.0354 77.574 73.111 76.7919 77.043C76.0098 80.975 74.0793 84.5867 71.2445 87.4215C68.4097 90.2563 64.7979 92.1868 60.866 92.9689C56.934 93.7511 52.8584 93.3496 49.1546 91.8155C45.4507 90.2813 42.285 87.6832 40.0577 84.3499C37.8305 81.0165 36.6416 77.0975 36.6416 73.0885L20.4647 73.0885C20.4647 80.297 22.6023 87.3437 26.6071 93.3373C30.6119 99.3309 36.3042 104.002 42.9639 106.761C49.6237 109.52 56.9519 110.241 64.0219 108.835C71.0919 107.429 77.5861 103.957 82.6833 98.8603C87.7805 93.7631 91.2517 87.2689 92.658 80.199C94.0643 73.129 93.3425 65.8007 90.584 59.141C87.8254 52.4812 83.1539 46.789 77.1603 42.7842C71.1666 38.7793 64.12 36.6418 56.9115 36.6418L56.9115 52.8187ZM56.9115 130L56.9115 113.823C46.108 113.823 35.747 109.532 28.1078 101.892C20.4685 94.2531 16.1769 83.892 16.1769 73.0885C16.1769 62.2851 20.4685 51.924 28.1078 44.2848C35.747 36.6456 46.108 32.3539 56.9115 32.3539V16.177C41.8176 16.177 27.342 22.173 16.669 32.846C5.99598 43.519 -3.09944e-05 57.9947 -3.09944e-05 73.0885C-3.09944e-05 88.1824 5.99598 102.658 16.669 113.331C27.342 124.004 41.8176 130 56.9115 130Z" fill="#009FDF"/>
</svg>
