<svg width="375" height="635" viewBox="0 0 375 635" fill="none" xmlns="http://www.w3.org/2000/svg">
<g filter="url(#filter0_if_61_1577)">
<path d="M222.5 248.073C208.769 248.073 195.346 252.145 183.929 259.774C172.512 267.403 163.613 278.245 158.358 290.932C153.104 303.618 151.729 317.577 154.408 331.044C157.087 344.512 163.699 356.883 173.408 366.592C183.118 376.302 195.488 382.914 208.956 385.593C222.423 388.271 236.383 386.897 249.069 381.642C261.755 376.387 272.598 367.489 280.227 356.071C287.855 344.654 291.927 331.231 291.927 317.5C291.927 299.087 284.613 281.428 271.592 268.408C258.572 255.388 240.914 248.073 222.5 248.073ZM-24.7265 317.5C-24.7265 251.931 1.32058 189.048 47.6846 142.684C94.0486 96.3204 156.932 70.2733 222.5 70.2733V0C47.2403 0 -94.9998 142.24 -94.9998 317.5C-94.9998 492.76 47.2403 635 222.5 635V564.727C156.932 564.727 94.0486 538.68 47.6846 492.316C1.32058 445.952 -24.7265 383.069 -24.7265 317.5ZM222.5 405.553C205.085 405.553 188.061 400.389 173.581 390.714C159.1 381.038 147.814 367.286 141.15 351.197C134.485 335.107 132.741 317.402 136.139 300.322C139.536 283.241 147.923 267.551 160.237 255.237C172.552 242.922 188.241 234.536 205.322 231.139C222.403 227.741 240.107 229.485 256.197 236.149C272.287 242.814 286.039 254.1 295.714 268.58C305.39 283.06 310.554 300.085 310.554 317.5H380.827C380.827 286.186 371.542 255.575 354.144 229.538C336.747 203.502 312.02 183.209 283.089 171.225C254.159 159.242 222.325 156.106 191.612 162.216C160.9 168.325 132.689 183.404 110.546 205.546C88.4041 227.689 73.3249 255.9 67.2158 286.612C61.1067 317.324 64.2421 349.159 76.2255 378.089C88.2089 407.019 108.502 431.747 134.539 449.144C160.575 466.541 191.186 475.827 222.5 475.827V405.553ZM222.5 70.2733V140.547C269.431 140.547 314.44 159.19 347.625 192.375C380.811 225.56 399.454 270.569 399.454 317.5C399.454 364.431 380.811 409.44 347.625 442.625C314.44 475.81 269.431 494.453 222.5 494.453V564.727C288.069 564.727 350.952 538.68 397.316 492.316C443.68 445.952 469.727 383.069 469.727 317.5C469.727 251.931 443.68 189.048 397.316 142.684C350.952 96.3204 288.069 70.2733 222.5 70.2733Z" fill="#181A1F"/>
</g>
<defs>
<filter id="filter0_if_61_1577" x="-125" y="-30" width="624.727" height="695" filterUnits="userSpaceOnUse" color-interpolation-filters="sRGB">
<feFlood flood-opacity="0" result="BackgroundImageFix"/>
<feBlend mode="normal" in="SourceGraphic" in2="BackgroundImageFix" result="shape"/>
<feColorMatrix in="SourceAlpha" type="matrix" values="0 0 0 0 0 0 0 0 0 0 0 0 0 0 0 0 0 0 127 0" result="hardAlpha"/>
<feOffset dy="4"/>
<feGaussianBlur stdDeviation="10"/>
<feComposite in2="hardAlpha" operator="arithmetic" k2="-1" k3="1"/>
<feColorMatrix type="matrix" values="0 0 0 0 0 0 0 0 0 0 0 0 0 0 0 0 0 0 0.25 0"/>
<feBlend mode="normal" in2="shape" result="effect1_innerShadow_61_1577"/>
<feGaussianBlur stdDeviation="15" result="effect2_foregroundBlur_61_1577"/>
</filter>
</defs>
</svg>
